<svg xmlns="http://www.w3.org/2000/svg" viewBox="0 0 284.89 284.46"><defs><style>.cls-1,.cls-2,.cls-4,.cls-5,.cls-6{fill:none;}.cls-1,.cls-2,.cls-3{stroke:#fff;}.cls-1,.cls-4,.cls-5{stroke-linecap:round;}.cls-1{stroke-linejoin:bevel;}.cls-2,.cls-5,.cls-6,.cls-7{stroke-miterlimit:10;}.cls-3,.cls-7{fill:#cacaca;}.cls-3,.cls-4{stroke-linejoin:round;}.cls-4,.cls-5,.cls-6,.cls-7{stroke:#231815;}.cls-6{stroke-width:2px;}.cls-8{fill:#231815;}</style></defs><g id="圖層_2" data-name="圖層 2"><g id="icon"><path class="cls-1" d="M252.83,44.86H269C287.14,41,287.6,12.66,278.84,4.8A17.84,17.84,0,0,0,266.46.52"/><path class="cls-2" d="M269,44.86s-19.47-9-2.43-22.64H252.81"/><path class="cls-3" d="M268.08.91H120.74c-20.06,0-36.33,17-36.33,38V223.8H76c-13.47,0-24.49,12.52-24.49,27.83v4.51c0,15.3,11,27.82,24.49,27.82H230.05c13.47,0,22.76-13.1,22.76-28.41l0-81.25V34.06C251.5,4.23,264.21,1.16,268.08.91Z"/><path class="cls-4" d="M84.41,223.8H224.74a9.29,9.29,0,0,1,7.12,3.44c4.86,5.84,11.76,18.17-3.34,29.91H206.64"/><path class="cls-5" d="M235.53,283.2s-4.84-1.35-16-7.47c-15.42-8.43-25-45.25,5.25-51.93"/><line class="cls-6" x1="106.63" y1="46.14" x2="227.9" y2="46.14"/><line class="cls-6" x1="106.63" y1="184.57" x2="227.9" y2="184.57"/><line class="cls-6" x1="106.63" y1="65.92" x2="206.87" y2="65.92"/><line class="cls-6" x1="106.63" y1="85.69" x2="167.26" y2="85.69"/><line class="cls-6" x1="106.63" y1="105.47" x2="211.08" y2="105.47"/><line class="cls-6" x1="106.63" y1="125.25" x2="192.85" y2="125.25"/><line class="cls-6" x1="106.63" y1="145.02" x2="219.49" y2="145.02"/><line class="cls-6" x1="106.63" y1="164.8" x2="173.92" y2="164.8"/><path class="cls-7" d="M182.64,130.89l11.4-7-12,4S175.49,95.8,163,85l-6.88,16.57L144.72,65.11S130.6,45.19,96.05,33.58l-13,23.88,2.14-27C63.88,25.07,36.14,23.09.92,29.25L51.48,92l22.3,15.16,36.8-1.23L94,118.17s67,31.13,82.66,17.26l-7.91,9.39,9.7-8.62,2,5.61.38-7,39.33,48.47S209.06,160.78,182.64,130.89Z"/><path class="cls-8" d="M179.3,132.27c.74-1.14-81.67-54-120.45-76.35-4-2.29,30.53,15.79,30.59,15.81C117.68,83.79,178.43,133.63,179.3,132.27Z"/></g></g></svg>