<svg xmlns="http://www.w3.org/2000/svg" viewBox="0 0 566.93 141.73"><defs><style>.cls-1{fill:#cacaca;}</style></defs><g id="圖層_2" data-name="圖層 2"><g id="logo"><line class="cls-1" y1="100.23" x2="566.93" y2="100.23"/><rect class="cls-1" y="98.73" width="566.93" height="3"/><path class="cls-1" d="M63.17,100.26l-3.26,6.24-5.65-8.9C54,97.6,56,94,63,94c7.24,0,8.8,2.88,8.8,2.88l-4.88,9.34Z"/><path class="cls-1" d="M113.81,100.26l3.26,6.24,5.65-8.9C123,97.6,121,94,114,94c-7.25,0-8.8,2.88-8.8,2.88l4.88,9.34Z"/><path class="cls-1" d="M69.37,29.8a4.51,4.51,0,0,0-.53.54c-1.72,2.19-1.23,5.64,1.1,7.7s5.6,2,7.31-.24A4.6,4.6,0,0,0,78,36.33,38.08,38.08,0,0,0,69.37,29.8Z"/><path class="cls-1" d="M86,98.59h-.48L70.24,122.81l2,2.46c1.44-2.88,5.69-11.54,5.69-11.54Z"/><path class="cls-1" d="M79.8,114.66c-1.49,3.8-3.49,9.57-5.09,13.78l10.68,13.29,2.88-43.14H86.62C85.13,102,82.13,108.73,79.8,114.66Z"/><path class="cls-1" d="M87.66,51.52l-2.32,2.77a.49.49,0,0,0-.07.49l2.87,6.47a.42.42,0,0,0,.44.24V51.12A1.12,1.12,0,0,0,87.66,51.52Z"/><path class="cls-1" d="M79.42,39.56c-2.51,3.2-7.3,3.35-10.69.34s-4.12-8-1.61-11.24l.12-.14A38.81,38.81,0,0,0,63,26.76c-3,5-1.63,12,3.26,16.35,5.28,4.67,12.71,4.43,16.61-.54a.64.64,0,0,0,.1-.13,42.05,42.05,0,0,0-2.85-3.88A7.13,7.13,0,0,1,79.42,39.56Z"/><path class="cls-1" d="M107.8,29.8a5.41,5.41,0,0,1,.53.54c1.72,2.19,1.22,5.64-1.1,7.7s-5.6,2-7.32-.24a4.6,4.6,0,0,1-.77-1.47A38.37,38.37,0,0,1,107.8,29.8Z"/><path class="cls-1" d="M91.2,98.59h.48l15.25,24.22-2,2.46c-1.45-2.88-5.7-11.54-5.7-11.54C99,113.22,94.28,104.37,91.2,98.59Z"/><path class="cls-1" d="M97.36,114.66c1.49,3.8,3.5,9.57,5.09,13.78L91.78,141.73,88.9,98.59h1.65C92,102,95,108.73,97.36,114.66Z"/><path class="cls-1" d="M89.5,51.52l2.33,2.77a.48.48,0,0,1,.06.49L89,61.25a.41.41,0,0,1-.44.24V51.12A1.1,1.1,0,0,1,89.5,51.52Z"/><path class="cls-1" d="M97.75,39.56c2.51,3.2,7.29,3.35,10.69.34s4.11-8,1.6-11.24a1.34,1.34,0,0,0-.11-.14,38.63,38.63,0,0,1,4.28-1.76c3,5,1.64,12-3.26,16.35-5.27,4.67-12.71,4.43-16.61-.54l-.1-.13a42.22,42.22,0,0,1,2.86-3.88A7.13,7.13,0,0,0,97.75,39.56Z"/><path class="cls-1" d="M139.61,23.88a148.43,148.43,0,0,0-18.2-4.59C116.36,8.13,103.59.17,88.58,0,73.57.17,60.8,8.13,55.75,19.29a148.17,148.17,0,0,0-18.19,4.59.13.13,0,0,0,0,.26c4.21-.76,13.86-2,22.64.18a39.32,39.32,0,0,1,27,23.35L88,50.11a1.28,1.28,0,0,1,.61-.12,1.35,1.35,0,0,1,.62.12L90,47.67a39.27,39.27,0,0,1,27-23.35c8.77-2.21,18.42-.94,22.63-.18A.13.13,0,0,0,139.61,23.88Z"/><path class="cls-1" d="M175.07,32.08H123.82C122,48.42,89.7,67.81,88.58,68.48c-1.12-.67-33.38-20.06-35.24-36.4H2.09A2.24,2.24,0,0,0,.5,35.74L16,55c1.95-.33,4.23-.67,6.87-1,7.44-1,17.63-1.69,17.63-1.69,0,.22-10.14,3.39-16.24,6.31-1.14.55-2.46,1.21-3.82,1.89L31.57,74.41l.78-.29c7.08-2.62,16.89-5.64,16.89-5.64,0,.22-9.18,5.57-14.56,9.81L40.89,86c6.13-4.1,15.06-6.68,25-6.68,12.39,0,19.35,4.92,22.59,8.17l.09-.09.1.09c3.24-3.25,10.19-8.17,22.58-8.17,9.95,0,18.89,2.58,25,6.68l6.2-7.72c-5.38-4.24-14.57-9.59-14.55-9.81,0,0,9.8,3,16.88,5.64l.79.29,11.13-13.86c-1.36-.68-2.68-1.34-3.83-1.89-6.1-2.92-16.21-6.09-16.23-6.31,0,0,10.18.73,17.62,1.69,2.64.33,4.92.67,6.87,1l15.5-19.3A2.23,2.23,0,0,0,175.07,32.08Z"/><path class="cls-1" d="M215.7,31.34A14.91,14.91,0,0,1,226,35.24a28,28,0,0,1,7.09,11.09q2.74,7.2,2.75,18.47,0,13.53-5.36,22.84T215.38,97q-9.27,0-14.6-9.1t-5.33-23.49q0-14.76,5.48-23.89T215.7,31.34Zm3.19,9.38q0-4.95-3.27-4.95A2.91,2.91,0,0,0,213.27,37a4.71,4.71,0,0,0-1,3V87.74a5.92,5.92,0,0,0,1,3.66,2.86,2.86,0,0,0,2.31,1.24,2.75,2.75,0,0,0,2.4-1.38,5.46,5.46,0,0,0,.91-3.08Z"/><path class="cls-1" d="M301.74,51.11l-1.89-10.28a5.27,5.27,0,0,0-1.58-2.8,2.46,2.46,0,0,1-.89-1.67V33.6a1,1,0,0,1,1.17-1.19h16.54c.54,0,.88.13,1,.4a4.51,4.51,0,0,1,.22,1.77,7.77,7.77,0,0,1-.22,2.52,2.55,2.55,0,0,1-1,.85c-.81.42-1.21.84-1.21,1.26a14.17,14.17,0,0,0,.32,2.46l4.65,25.5,4.83-26.33a7.33,7.33,0,0,0,0-.83,3,3,0,0,0-2.06-2.78c-.7-.31-1.06-1.21-1.09-2.68a5.21,5.21,0,0,0,0-.83v-.36c0-.63.49-1,1.45-1h9.27a1.64,1.64,0,0,1,1.25.34,2.42,2.42,0,0,1,.28,1.44,5.63,5.63,0,0,1,0,.71l-.12,1.54a2.52,2.52,0,0,1-1.29,1.62,3.45,3.45,0,0,0-1.46,2.42l-9.74,52.2a15.75,15.75,0,0,1-.93,3.68,1.44,1.44,0,0,1-1.34.6h-6.79c-.72,0-1.18-.75-1.37-2.26,0-.29-.06-.51-.08-.67l-5.13-27.9L299.4,94.5a5.19,5.19,0,0,1-.61,2.08,1.3,1.3,0,0,1-1.05.38h-7.07c-.81,0-1.39-1.39-1.74-4.16-.05-.5-.11-.88-.16-1.14l-9.66-51.18a3.33,3.33,0,0,0-1.7-2.38,1.87,1.87,0,0,1-1.13-1.74v-3c0-.61.38-.91,1.13-.91h16a1.37,1.37,0,0,1,1.13.41,3.58,3.58,0,0,1,.32,1.92,11,11,0,0,1-.12,2.14,2.25,2.25,0,0,1-.76,1,2.15,2.15,0,0,0-.8,1.54,13.09,13.09,0,0,0,.24,2.25l5.13,26.7Z"/><path class="cls-1" d="M389.89,91.78h2.31a2.89,2.89,0,0,0,2.63-1.39A31.4,31.4,0,0,0,397.05,84a3.88,3.88,0,0,1,1.17-2.35,4.8,4.8,0,0,1,2.35-.41,5.73,5.73,0,0,1,2.34.29,1.15,1.15,0,0,1,.53,1.09,12,12,0,0,1-.21,1.78l-1.41,9.45a4.48,4.48,0,0,1-.63,1.94,1.92,1.92,0,0,1-1.55.47H373c-1.14,0-1.7-.68-1.7-2a5.69,5.69,0,0,1,.22-2,1.53,1.53,0,0,1,.95-.69q2.31-.72,2.31-4.15v-47a2.17,2.17,0,0,0-1.46-2.1,2.71,2.71,0,0,1-1.54-1.14,5.81,5.81,0,0,1-.28-2.1,5.66,5.66,0,0,1,.24-2.16c.17-.27.6-.41,1.3-.41h18.63a1.75,1.75,0,0,1,1.44.49,5.54,5.54,0,0,1,.38,2.67,4,4,0,0,1-.26,1.76,2.36,2.36,0,0,1-1.36.81,2.6,2.6,0,0,0-2,2.61Z"/><path class="cls-1" d="M460.5,37.27V59.86h2.75a2.39,2.39,0,0,0,1.65-.48,3.76,3.76,0,0,0,.81-2.05A16.06,16.06,0,0,1,466.5,54a1,1,0,0,1,.95-.56,12.52,12.52,0,0,1,3.62.26c.28.17.42.84.42,2V68.84a2.25,2.25,0,0,1-.4,1.6,4.77,4.77,0,0,1-2.51.37,2.55,2.55,0,0,1-1.84-.49,7,7,0,0,1-.91-2.79A6.6,6.6,0,0,0,465,65a1.66,1.66,0,0,0-1.31-.48H460.5V91.74h2.14a3.1,3.1,0,0,0,2.73-1.09,33.11,33.11,0,0,0,2.4-6.27,6.94,6.94,0,0,1,1.42-2.85,3.73,3.73,0,0,1,2.55-.67c1.67,0,2.5.53,2.5,1.58a8.37,8.37,0,0,1-.16,1.39l-1.5,9a14.53,14.53,0,0,1-.66,3c-.18.33-.72.49-1.64.49h-27c-.68,0-1.11-.15-1.3-.45a7,7,0,0,1-.28-2.63,2.12,2.12,0,0,1,1.46-2q2.22-.9,2.22-2.49V39.33c0-.5-.63-1-1.82-1.5-.81-.34-1.29-.67-1.43-1a6.87,6.87,0,0,1-.23-2.29,3.71,3.71,0,0,1,.25-1.84q.24-.3,1.41-.3h25.79a2.5,2.5,0,0,1,1.42.32,2.48,2.48,0,0,1,.68,1.5l2.07,10.2a7.77,7.77,0,0,1,.16,1.07c0,.71-.66,1.07-2,1.07a5.82,5.82,0,0,1-2.93-.5,5.14,5.14,0,0,1-1.42-2.47,25.35,25.35,0,0,0-2.15-4.94,2.52,2.52,0,0,0-2-1.39Z"/><path class="cls-1" d="M524.07,36.84h-1.84c-.6,0-1.09.39-1.46,1.17a27,27,0,0,0-1.19,6.3,5.2,5.2,0,0,1-.89,2.83,3.65,3.65,0,0,1-2.42.58A3.94,3.94,0,0,1,514,47.3a2.06,2.06,0,0,1-.5-1.64c0-.48,0-.95,0-1.43l.49-9.21a3.46,3.46,0,0,1,.56-2.12,3.78,3.78,0,0,1,2.43-.49H546.7c.86,0,1.39.11,1.58.32a5.54,5.54,0,0,1,.45,2.29l.68,8.15c.06.63.08,1.28.08,1.94a4.32,4.32,0,0,1-.3,1.81c-.2.43-.84.64-1.92.64a5.49,5.49,0,0,1-2.65-.4c-.39-.26-.7-1.09-1-2.49A40.39,40.39,0,0,0,542.26,39c-.51-1.46-1.15-2.19-1.9-2.19h-1.21V87.62a3,3,0,0,0,1.94,3,2.14,2.14,0,0,1,1.07.85,5.35,5.35,0,0,1,.26,2.08c0,1.34-.12,2.12-.36,2.35a2.77,2.77,0,0,1-1.67.33H522.58c-.71,0-1.16-.13-1.36-.39a4.81,4.81,0,0,1-.31-2.26c0-1.47.43-2.37,1.27-2.69a3.58,3.58,0,0,0,1.56-.92,2.8,2.8,0,0,0,.33-1.57Z"/></g></g></svg>