<svg xmlns="http://www.w3.org/2000/svg" viewBox="0 0 283.46 226.77"><defs><style>.cls-1{fill:#cacaca;}</style></defs><g id="圖層_2" data-name="圖層 2"><g id="logo"><path class="cls-1" d="M93.85,140.91a3.94,3.94,0,0,1,2.58.9,6.61,6.61,0,0,1,1.78,2.59,11.44,11.44,0,0,1,.69,4.31A9.89,9.89,0,0,1,97.55,154a4.21,4.21,0,0,1-3.79,2.17,4.13,4.13,0,0,1-3.66-2.12,11.88,11.88,0,0,1,0-11A4.21,4.21,0,0,1,93.85,140.91Zm.8,2.18c0-.77-.28-1.15-.83-1.15a.74.74,0,0,0-.58.28,1,1,0,0,0-.25.7v11.13a1.28,1.28,0,0,0,.25.86.73.73,0,0,0,.58.29.69.69,0,0,0,.6-.33,1.21,1.21,0,0,0,.23-.72Z"/><path class="cls-1" d="M119.6,145.51l-.47-2.39a1.23,1.23,0,0,0-.4-.66.53.53,0,0,1-.22-.38v-.65a.26.26,0,0,1,.29-.28H123a.29.29,0,0,1,.26.1.88.88,0,0,1,.06.41,1.6,1.6,0,0,1-.06.59.61.61,0,0,1-.25.2c-.21.09-.31.19-.31.29a3.28,3.28,0,0,0,.08.57l1.17,5.95,1.21-6.14a1.21,1.21,0,0,0,0-.19.7.7,0,0,0-.51-.65c-.18-.07-.27-.28-.28-.63a.92.92,0,0,0,0-.19v-.08c0-.15.12-.23.37-.23H127a.46.46,0,0,1,.32.08.64.64,0,0,1,.07.34c0,.05,0,.11,0,.17l0,.35a.6.6,0,0,1-.33.38.78.78,0,0,0-.36.57l-2.45,12.17a3.32,3.32,0,0,1-.23.85.38.38,0,0,1-.34.14H122c-.18,0-.3-.17-.35-.52a.63.63,0,0,0,0-.16L120.29,149,119,155.63a1,1,0,0,1-.16.48.33.33,0,0,1-.26.09h-1.78c-.2,0-.35-.32-.43-1,0-.11,0-.2,0-.26L113.92,143a.77.77,0,0,0-.43-.56.45.45,0,0,1-.28-.4v-.71c0-.15.1-.22.28-.22h4a.39.39,0,0,1,.29.1.84.84,0,0,1,.08.45,2.46,2.46,0,0,1,0,.5.58.58,0,0,1-.19.23.45.45,0,0,0-.2.36,2.85,2.85,0,0,0,.06.52l1.28,6.23Z"/><path class="cls-1" d="M145.89,155h.58a.72.72,0,0,0,.66-.32,6.77,6.77,0,0,0,.56-1.49.91.91,0,0,1,.29-.55,1.2,1.2,0,0,1,.59-.1,1.49,1.49,0,0,1,.59.07.26.26,0,0,1,.13.25,3.21,3.21,0,0,1,0,.42l-.36,2.2a1,1,0,0,1-.15.45.5.5,0,0,1-.39.12h-6.68c-.29,0-.43-.16-.43-.48a1.18,1.18,0,0,1,.06-.48c0-.07.11-.12.24-.16.38-.11.57-.43.57-1V143a.51.51,0,0,0-.36-.49.69.69,0,0,1-.39-.27,1.37,1.37,0,0,1-.07-.49,1.23,1.23,0,0,1,.06-.5c0-.06.15-.1.33-.1h4.68a.46.46,0,0,1,.36.12,1.25,1.25,0,0,1,.09.62.94.94,0,0,1-.06.41.62.62,0,0,1-.34.19.62.62,0,0,0-.51.61Z"/><path class="cls-1" d="M167.77,142.29v5.26h.69a.62.62,0,0,0,.42-.11.83.83,0,0,0,.2-.48,3.53,3.53,0,0,1,.2-.78.25.25,0,0,1,.24-.13,3.47,3.47,0,0,1,.91.06c.07,0,.1.2.1.47v3.07a.48.48,0,0,1-.1.37,1.25,1.25,0,0,1-.63.09.65.65,0,0,1-.46-.12,1.58,1.58,0,0,1-.23-.65,1.55,1.55,0,0,0-.22-.6.45.45,0,0,0-.33-.11h-.79V155h.54a.82.82,0,0,0,.69-.25,8.25,8.25,0,0,0,.6-1.46,1.49,1.49,0,0,1,.35-.66,1,1,0,0,1,.64-.16c.42,0,.63.12.63.37a1.6,1.6,0,0,1,0,.32l-.37,2.09a3.57,3.57,0,0,1-.17.69c0,.08-.18.12-.41.12h-6.77a.39.39,0,0,1-.33-.11,1.65,1.65,0,0,1-.07-.61.48.48,0,0,1,.37-.47c.37-.15.56-.34.56-.58v-11.5c0-.12-.16-.24-.46-.35a.75.75,0,0,1-.36-.23,1.49,1.49,0,0,1-.06-.54.87.87,0,0,1,.06-.43.6.6,0,0,1,.36-.07H170a.64.64,0,0,1,.36.08.56.56,0,0,1,.17.35l.52,2.38a1.1,1.1,0,0,1,0,.25c0,.16-.16.24-.49.24a1.57,1.57,0,0,1-.74-.11,1.17,1.17,0,0,1-.35-.58,6,6,0,0,0-.54-1.15.64.64,0,0,0-.51-.32Z"/><path class="cls-1" d="M187.89,142.19h-.46a.42.42,0,0,0-.37.27,5.52,5.52,0,0,0-.3,1.47,1.19,1.19,0,0,1-.22.66,1,1,0,0,1-.61.13,1.1,1.1,0,0,1-.56-.09.47.47,0,0,1-.13-.39c0-.11,0-.22,0-.33l.12-2.15a.75.75,0,0,1,.14-.49,1,1,0,0,1,.61-.12h7.45a.64.64,0,0,1,.4.08,1.44,1.44,0,0,1,.11.53l.17,1.9c0,.15,0,.3,0,.45a.84.84,0,0,1-.08.43q-.08.15-.48.15a1.48,1.48,0,0,1-.66-.1c-.1-.06-.18-.25-.24-.58a8.76,8.76,0,0,0-.36-1.31c-.12-.34-.28-.51-.47-.51h-.31V154a.72.72,0,0,0,.49.7.54.54,0,0,1,.27.19,1.28,1.28,0,0,1,.06.49c0,.31,0,.49-.09.55a.72.72,0,0,1-.41.08h-4.48a.46.46,0,0,1-.34-.1,1,1,0,0,1-.07-.52c0-.35.1-.56.31-.63a.82.82,0,0,0,.39-.22.56.56,0,0,0,.09-.36Z"/><line class="cls-1" x1="77.69" y1="159.01" x2="203.6" y2="159.2"/><rect class="cls-1" x="139.14" y="96.15" width="3" height="125.91" transform="translate(-18.68 299.5) rotate(-89.91)"/><path class="cls-1" d="M111,47.69a6.91,6.91,0,0,0-.85.86c-2.75,3.5-2,9,1.76,12.31s9,3.12,11.7-.38a7.48,7.48,0,0,0,1.24-2.35A60.76,60.76,0,0,0,111,47.69Z"/><path class="cls-1" d="M137.55,157.75h-.77l-24.4,38.74,3.17,3.94c2.31-4.61,9.11-18.47,9.11-18.47C125.08,181.15,132.62,167,137.55,157.75Z"/><path class="cls-1" d="M127.69,183.45c-2.39,6.09-5.6,15.32-8.15,22.05l17.08,21.27,4.61-69h-2.64C136.2,163.15,131.41,174,127.69,183.45Z"/><path class="cls-1" d="M140.26,82.43l-3.72,4.44a.74.74,0,0,0-.1.78L141,98a.64.64,0,0,0,.7.38V81.78A1.83,1.83,0,0,0,140.26,82.43Z"/><path class="cls-1" d="M127.07,63.29c-4,5.12-11.67,5.36-17.11.55s-6.58-12.87-2.56-18l.18-.22a63.59,63.59,0,0,0-6.85-2.81C96,50.76,98.11,62,105.94,69c8.44,7.48,20.34,7.1,26.58-.85l.15-.21a63,63,0,0,0-4.57-6.21A10.79,10.79,0,0,1,127.07,63.29Z"/><path class="cls-1" d="M172.48,47.69a6.84,6.84,0,0,1,.84.86c2.75,3.5,2,9-1.75,12.31s-9,3.12-11.71-.38a7.45,7.45,0,0,1-1.23-2.35A60.54,60.54,0,0,1,172.48,47.69Z"/><path class="cls-1" d="M145.92,157.75h.76l24.4,38.74-3.16,3.94C165.6,195.82,158.8,182,158.8,182,158.38,181.15,150.84,167,145.92,157.75Z"/><path class="cls-1" d="M155.78,183.45c2.38,6.09,5.59,15.32,8.15,22.05l-17.09,21.27-4.61-69h2.64C147.26,163.15,152.06,174,155.78,183.45Z"/><path class="cls-1" d="M143.21,82.43l3.71,4.44a.76.76,0,0,1,.11.78L142.43,98a.63.63,0,0,1-.7.38V81.78A1.84,1.84,0,0,1,143.21,82.43Z"/><path class="cls-1" d="M156.4,63.29c4,5.12,11.67,5.36,17.1.55s6.58-12.87,2.57-18l-.19-.22a63.77,63.77,0,0,1,6.86-2.81c4.72,7.94,2.62,19.21-5.21,26.15-8.44,7.48-20.34,7.1-26.58-.85l-.16-.21a66.41,66.41,0,0,1,4.57-6.21A10.85,10.85,0,0,0,156.4,63.29Z"/><path class="cls-1" d="M223.38,38.21a239.35,239.35,0,0,0-29.12-7.35C186.18,13,165.75.27,141.73,0c-24,.27-44.44,13-52.53,30.86a238.59,238.59,0,0,0-29.11,7.35.21.21,0,0,0,.09.41c6.73-1.21,22.18-3.24,36.22.29,26.65,6.69,38.47,26.28,43.15,37.37l1.2,3.9a2.09,2.09,0,0,1,1-.19,2.14,2.14,0,0,1,1,.19l1.2-3.9c4.68-11.09,16.5-30.68,43.15-37.37,14-3.53,29.48-1.5,36.21-.29A.21.21,0,0,0,223.38,38.21Z"/><path class="cls-1" d="M280.12,51.33h-82c-3,26.14-54.59,57.17-56.38,58.23-1.79-1.06-53.42-32.09-56.38-58.23h-82C.5,51.33-1,54.88.81,57.18l24.8,30.88c3.12-.52,6.76-1.06,11-1.6,11.9-1.53,28.2-2.69,28.2-2.69,0,.35-16.22,5.41-26,10.09-1.83.88-3.94,1.93-6.12,3l17.81,22.17,1.25-.46c11.33-4.2,27-9,27-9,0,.35-14.68,8.91-23.29,15.69l9.93,12.36c9.81-6.56,24.11-10.69,40-10.69,19.82,0,30.94,7.87,36.13,13.08l.15-.16.15.16c5.19-5.21,16.32-13.08,36.14-13.08,15.92,0,30.21,4.13,40,10.69L228,125.26c-8.61-6.78-23.32-15.34-23.28-15.69,0,0,15.68,4.82,27,9l1.26.46,17.81-22.17c-2.18-1.09-4.29-2.14-6.12-3-9.77-4.68-26-9.74-26-10.09,0,0,16.29,1.16,28.2,2.69,4.22.54,7.87,1.08,11,1.6l24.8-30.88C284.51,54.88,283,51.33,280.12,51.33Z"/></g></g></svg>